<svg width="27" height="27" viewBox="0 0 27 27" fill="none" xmlns="http://www.w3.org/2000/svg">
<path fill-rule="evenodd" clip-rule="evenodd" d="M26.2721 7.77721C26.1723 5.67004 25.691 3.80352 24.1473 2.26569C22.6095 0.727864 20.7429 0.24656 18.6358 0.140908C16.464 0.0176466 9.95466 0.0176466 7.78292 0.140908C5.68161 0.24069 3.81509 0.721995 2.27139 2.25982C0.727701 3.79765 0.252267 5.66417 0.146615 7.77134C0.0233534 9.94308 0.0233534 16.4524 0.146615 18.6242C0.246397 20.7313 0.727701 22.5979 2.27139 24.1357C3.81509 25.6735 5.67574 26.1548 7.78292 26.2605C9.95466 26.3837 16.464 26.3837 18.6358 26.2605C20.7429 26.1607 22.6095 25.6794 24.1473 24.1357C25.6851 22.5979 26.1664 20.7313 26.2721 18.6242C26.3953 16.4524 26.3953 9.94895 26.2721 7.77721ZM20.2323 7.75373C21.101 7.75373 21.8053 7.05526 21.8053 6.18069C21.8053 5.312 21.101 4.60765 20.2323 4.60765C19.3636 4.60765 18.6592 5.312 18.6592 6.18069C18.6592 7.04939 19.3577 7.75373 20.2323 7.75373ZM13.2123 6.45656C9.47922 6.45656 6.46813 9.46765 6.46813 13.2007C6.46813 16.9337 9.47922 19.9448 13.2123 19.9448C16.9453 19.9448 19.9564 16.9337 19.9564 13.2007C19.9564 9.46765 16.9453 6.45656 13.2123 6.45656ZM13.2123 17.5852C10.7999 17.5852 8.8277 15.6189 8.8277 13.2007C8.8277 10.7824 10.794 8.81613 13.2123 8.81613C15.6305 8.81613 17.5968 10.7824 17.5968 13.2007C17.5968 15.6189 15.6247 17.5852 13.2123 17.5852ZM20.966 23.4548C22.1223 22.9911 23.0086 22.1048 23.4664 20.9544C24.0555 19.4743 24.0226 16.2367 24.0014 14.1378C23.9978 13.7897 23.9947 13.4729 23.9947 13.2007C23.9947 12.9284 23.9978 12.6116 24.0014 12.2637C24.0226 10.166 24.0554 6.93211 23.4664 5.44699C23.0027 4.29069 22.1164 3.40439 20.966 2.94656C19.4812 2.36073 16.2278 2.39193 14.1297 2.41207C13.7894 2.41533 13.4793 2.4183 13.2123 2.4183C12.9399 2.4183 12.6232 2.41509 12.2751 2.41156C10.1776 2.39031 6.9437 2.35755 5.45857 2.94656C4.30226 3.41026 3.41596 4.29656 2.95813 5.44699C2.3723 6.93177 2.40351 10.1851 2.42364 12.2833C2.4269 12.6236 2.42987 12.9336 2.42987 13.2007C2.42987 13.473 2.42667 13.7897 2.42313 14.1378C2.40189 16.2354 2.36912 19.4693 2.95813 20.9544C3.42183 22.1107 4.30813 22.997 5.45857 23.4548C6.94336 24.0407 10.1967 24.0095 12.2949 23.9893C12.6352 23.986 12.9452 23.9831 13.2123 23.9831C13.4845 23.9831 13.8013 23.9862 14.1493 23.9898C16.247 24.0111 19.4809 24.0439 20.966 23.4548Z" fill="black" fill-opacity="0.6"/>
</svg>
