<svg width="27" height="27" viewBox="0 0 27 27" fill="none" xmlns="http://www.w3.org/2000/svg">
<path fill-rule="evenodd" clip-rule="evenodd" d="M3.24181 6.51435C1.45185 6.51435 0 5.03177 0 3.24181C0 1.45141 1.45141 0 3.24181 0C5.03221 0 6.48362 1.45141 6.48362 3.24181C6.48362 5.03177 5.03116 6.51435 3.24181 6.51435ZM6.04366 26.9994H0.445982V8.97328H6.04366V26.9994ZM21.4083 26.9994H26.994H27V17.0974C27 12.2519 25.9586 8.52127 20.2934 8.52127C17.5699 8.52127 15.7444 10.0159 14.9971 11.4322H14.9187V8.97328H9.55005V26.9994H15.1417V18.0737C15.1417 15.7233 15.5877 13.4512 18.498 13.4512C21.3662 13.4512 21.4083 16.1331 21.4083 18.2244V26.9994Z" fill="black" fill-opacity="0.6"/>
</svg>
