<svg width="27" height="22" viewBox="0 0 27 22" fill="none" xmlns="http://www.w3.org/2000/svg">
<path d="M23.8519 5.38515C23.8688 5.62129 23.8688 5.85749 23.8688 6.09364C23.8688 13.2964 18.3866 21.5957 8.36673 21.5957C5.2798 21.5957 2.41219 20.7017 0 19.1498C0.438594 19.2004 0.860261 19.2172 1.31573 19.2172C3.86282 19.2172 6.20756 18.3569 8.07996 16.8894C5.68464 16.8388 3.6773 15.27 2.98568 13.1109C3.32308 13.1615 3.66042 13.1953 4.01469 13.1953C4.50386 13.1953 4.99308 13.1278 5.4485 13.0097C2.95198 12.5036 1.07953 10.3107 1.07953 7.66239V7.59494C1.80485 7.99978 2.64834 8.2528 3.5423 8.2865C2.07474 7.30812 1.11328 5.63817 1.11328 3.74889C1.11328 2.73681 1.38313 1.80905 1.85547 0.999359C4.53756 4.30556 8.56913 6.46468 13.0898 6.70088C13.0055 6.29603 12.9548 5.87436 12.9548 5.45265C12.9548 2.45004 15.3839 0.00415039 18.4034 0.00415039C19.9721 0.00415039 21.389 0.662015 22.3843 1.72472C23.6157 1.48858 24.7964 1.03311 25.8423 0.408994C25.4374 1.67415 24.5772 2.73686 23.447 3.41155C24.5434 3.29353 25.6062 2.98983 26.5845 2.56816C25.8424 3.6477 24.9146 4.60916 23.8519 5.38515Z" fill="black" fill-opacity="0.6"/>
</svg>
